<svg width="144" height="144" viewBox="0 0 144 144" fill="none" xmlns="http://www.w3.org/2000/svg">
<g clip-path="url(#clip0)">
<path d="M41.8793 120.305L46.0881 122.698L45.5421 123.658L42.4655 121.91L41.7952 123.089L44.5282 124.642L43.9822 125.603L41.2493 124.049L40.5124 125.345L43.6358 127.121L43.0898 128.081L38.8342 125.662L41.8793 120.305Z" fill="white"/>
<path d="M57.5816 129.969L56.2986 126.705L57.8452 127.032L58.6538 129.241L58.6977 129.251L60.3232 127.557L61.7643 127.862L59.2637 130.307L60.682 133.931L59.1442 133.605L58.2004 131.037L58.1565 131.027L56.2707 132.997L54.8296 132.692L57.5816 129.969Z" fill="white"/>
<path d="M73.726 128.402L76.6442 128.069C77.3284 127.991 77.8631 128.108 78.2482 128.42C78.6326 128.725 78.8611 129.196 78.9338 129.833C79.0064 130.47 78.8816 130.987 78.5594 131.386C78.2425 131.777 77.7271 132.014 77.0131 132.095L75.4782 132.27L75.7184 134.377L74.4244 134.524L73.726 128.402ZM76.8611 131.001C77.1408 130.969 77.3458 130.864 77.4762 130.686C77.6066 130.509 77.6552 130.274 77.6219 129.983C77.5893 129.697 77.4898 129.486 77.3235 129.348C77.1564 129.204 76.9331 129.148 76.6534 129.18L75.1453 129.352L75.3529 131.173L76.8611 131.001Z" fill="white"/>
<path d="M89.9646 124.661L94.3536 122.618L94.8199 123.62L91.6116 125.113L92.1841 126.343L95.0341 125.016L95.5004 126.017L92.6504 127.344L93.2797 128.696L96.5368 127.18L97.0031 128.181L92.5653 130.247L89.9646 124.661Z" fill="white"/>
<path d="M102.005 117.802L104.505 115.696C105.032 115.252 105.538 115.049 106.023 115.087C106.505 115.119 106.943 115.369 107.336 115.836C107.892 116.496 107.987 117.167 107.623 117.85L110.199 118.956L109.121 119.865L106.808 118.806L105.489 119.917L106.97 121.676L105.974 122.515L102.005 117.802ZM106.204 117.894C106.419 117.713 106.536 117.517 106.554 117.306C106.572 117.095 106.496 116.888 106.326 116.687C106.157 116.485 105.968 116.378 105.761 116.365C105.554 116.351 105.343 116.435 105.128 116.616L103.712 117.808L104.789 119.086L106.204 117.894Z" fill="white"/>
<path d="M113.312 107.366L114.127 106.349L118.936 110.201L118.122 111.217L113.312 107.366Z" fill="white"/>
<path d="M121.135 96.0287L123.179 91.6398L124.18 92.1061L122.687 95.3143L123.916 95.8868L125.243 93.0368L126.245 93.5031L124.918 96.3531L126.27 96.9824L127.786 93.7253L128.788 94.1916L126.721 98.6294L121.135 96.0287Z" fill="white"/>
<path d="M126.542 79.8196L126.685 78.5613L130.283 76.585C130.392 76.5252 130.605 76.4289 130.922 76.2963L130.9 76.2486L130.379 76.2163L126.997 75.8305L127.141 74.5722L133.263 75.2706L133.119 76.5289L129.494 78.511C129.32 78.6057 129.111 78.6993 128.865 78.7918L128.887 78.8395C129.145 78.8508 129.324 78.8623 129.425 78.8738L132.807 79.2597L132.664 80.518L126.542 79.8196Z" fill="white"/>
<path d="M132.123 59.1588C132.535 61.1037 131.701 62.2963 129.621 62.7364C128.578 62.957 127.745 62.8671 127.122 62.4665C126.493 62.0672 126.08 61.4047 125.884 60.4791C125.776 59.9694 125.768 59.4939 125.858 59.0525C125.941 58.6065 126.136 58.2285 126.444 57.9185C126.745 57.6039 127.15 57.3927 127.66 57.2849L127.937 58.5942C127.544 58.6772 127.263 58.8683 127.094 59.1673C126.919 59.4676 126.874 59.8198 126.96 60.224C127.076 60.7747 127.327 61.1501 127.712 61.3501C128.097 61.5502 128.597 61.5851 129.212 61.4549L129.476 61.3992C130.747 61.1301 131.268 60.4508 131.037 59.3612C130.946 58.9335 130.763 58.6173 130.487 58.4125C130.21 58.2018 129.875 58.138 129.483 58.2211L129.215 56.9557C129.731 56.8466 130.189 56.872 130.59 57.032C130.985 57.1932 131.313 57.4573 131.575 57.8243C131.83 58.1926 132.013 58.6374 132.123 59.1588Z" fill="white"/>
<path d="M121.577 47.7476L119.185 43.5388L120.145 42.9928L121.894 46.0693L123.073 45.3991L121.519 42.6661L122.48 42.1201L124.033 44.8531L125.33 44.1162L123.554 40.9928L124.515 40.4468L126.934 44.7025L121.577 47.7476Z" fill="white"/>
</g>
<defs>
<clipPath id="clip0">
<rect width="144" height="144" fill="white"/>
</clipPath>
</defs>
</svg>
